<?xml version="1.0" standalone="no"?>
<!DOCTYPE svg PUBLIC "-//W3C//DTD SVG 20010904//EN"
 "http://www.w3.org/TR/2001/REC-SVG-20010904/DTD/svg10.dtd">
<svg version="1.0" xmlns="http://www.w3.org/2000/svg"
 width="700.000000pt" height="700.000000pt" viewBox="0 0 700.000000 700.000000"
 preserveAspectRatio="xMidYMid meet">
<metadata>
Created by potrace 1.14, written by Peter Selinger 2001-2017
</metadata>
<g transform="translate(0.000000,700.000000) scale(0.100000,-0.100000)"
fill="#000000" stroke="none">
<path d="M4710 6037 c-755 -273 -2064 -738 -2160 -768 -167 -50 -377 -133
-488 -193 -95 -50 -205 -202 -232 -320 -14 -65 -14 -2938 0 -3003 25 -110 124
-246 220 -301 25 -14 59 -37 75 -51 35 -30 225 -102 825 -312 402 -141 440
-153 505 -152 132 0 244 74 302 198 l28 60 3 603 c2 331 0 602 -3 602 -3 0
-90 -32 -193 -71 -103 -39 -454 -167 -781 -284 -419 -151 -608 -223 -640 -246
-25 -18 -40 -24 -32 -15 31 37 115 72 616 251 286 102 636 229 778 283 l258
97 -3 705 c-3 695 -3 706 -25 765 -28 78 -22 84 9 8 l23 -58 3 -712 c1 -393 6
-713 11 -713 24 0 1064 376 1115 403 79 42 165 130 209 215 71 135 68 56 65
1499 l-3 1298 -23 48 c-56 113 -166 185 -295 193 -64 4 -83 1 -167 -29z
m-2639 -1068 c-10 -45 2 -146 23 -187 9 -18 14 -32 11 -32 -2 0 -13 17 -24 39
-27 52 -36 127 -21 180 13 51 22 51 11 0z m1649 -969 c6 -11 8 -20 6 -20 -3 0
-10 9 -16 20 -6 11 -8 20 -6 20 3 0 10 -9 16 -20z"/>
</g>
</svg>
