<svg xmlns="http://www.w3.org/2000/svg" width="20.787" height="17.03" viewBox="0 0 20.787 17.03">
  <path id="Icon_awesome-eye-slash" data-name="Icon awesome-eye-slash" d="M10.394,13.3A4.707,4.707,0,0,1,5.752,8.877L2.345,6.18A11.112,11.112,0,0,0,1.152,8.029a1.1,1.1,0,0,0,0,.971,10.4,10.4,0,0,0,9.241,5.9,9.867,9.867,0,0,0,2.53-.348l-1.685-1.335A4.575,4.575,0,0,1,10.394,13.3Zm10.193,1.932L17,12.395A10.978,10.978,0,0,0,19.635,9a1.1,1.1,0,0,0,0-.971,10.4,10.4,0,0,0-9.241-5.9A9.824,9.824,0,0,0,5.609,3.383L1.477.112A.512.512,0,0,0,.747.205L.11,1.046A.541.541,0,0,0,.2,1.793l19.11,15.125a.512.512,0,0,0,.729-.093l.638-.841a.541.541,0,0,0-.092-.747Zm-5.967-4.723L13.343,9.5a3.22,3.22,0,0,0,.169-.989A3.18,3.18,0,0,0,12.3,5.964a3.02,3.02,0,0,0-2.725-.516,1.61,1.61,0,0,1,.3.938,1.586,1.586,0,0,1-.05.333L7.433,4.826a4.557,4.557,0,0,1,2.961-1.1,4.619,4.619,0,0,1,3.308,1.4,4.846,4.846,0,0,1,1.369,3.388,4.769,4.769,0,0,1-.451,2Z" transform="translate(0 0)" fill="#2e58a6" opacity="0.5"/>
</svg>
