<svg xmlns="http://www.w3.org/2000/svg" width="20.5" height="18.219" viewBox="0 0 20.5 18.219">
  <path id="Icon_awesome-edit" data-name="Icon awesome-edit" d="M14.329,2.965l3.21,3.21a.348.348,0,0,1,0,.491L9.766,14.439l-3.3.367A.692.692,0,0,1,5.7,14.04l.367-3.3,7.773-7.773A.348.348,0,0,1,14.329,2.965Zm5.766-.815L18.357.413a1.392,1.392,0,0,0-1.965,0l-1.26,1.26a.348.348,0,0,0,0,.491l3.21,3.21a.348.348,0,0,0,.491,0l1.26-1.26a1.392,1.392,0,0,0,0-1.965ZM13.667,12.325v3.623H2.278V4.559h8.179a.438.438,0,0,0,.3-.125l1.424-1.424a.427.427,0,0,0-.3-.73H1.708A1.709,1.709,0,0,0,0,3.99V16.517a1.709,1.709,0,0,0,1.708,1.708H14.236a1.709,1.709,0,0,0,1.708-1.708V10.9a.428.428,0,0,0-.73-.3l-1.424,1.424A.438.438,0,0,0,13.667,12.325Z" transform="translate(0 -0.007)" fill="#2e58a6"/>
</svg>
