<svg id="undraw_location_review_dmxd" xmlns="http://www.w3.org/2000/svg" width="81.265" height="73.272" viewBox="0 0 81.265 73.272">
  <path id="Path_6759" data-name="Path 6759" d="M91.542,313.961,80.326,300.618l-22.513.206-13.657,13.3.276.177h-.1v27.668H91.511V314.3Z" transform="translate(-39.887 -271.552)" fill="#3f3d56"/>
  <path id="Path_6760" data-name="Path 6760" d="M287.466,300.912l-14.011,16.427v24.9H298.64V314.214Z" transform="translate(-247.015 -271.818)" fill="#2e58a6"/>
  <rect id="Rectangle_1744" data-name="Rectangle 1744" width="5.143" height="4.546" transform="translate(36.549 56.65)" fill="#fff"/>
  <rect id="Rectangle_1745" data-name="Rectangle 1745" width="5.143" height="4.474" transform="translate(36.549 48.781)" fill="#fff"/>
  <rect id="Rectangle_1746" data-name="Rectangle 1746" width="5.143" height="4.546" transform="translate(13.691 55.444)" fill="#fff"/>
  <rect id="Rectangle_1747" data-name="Rectangle 1747" width="5.143" height="4.474" transform="translate(13.691 47.575)" fill="#fff"/>
  <rect id="Rectangle_1748" data-name="Rectangle 1748" width="81.265" height="0.193" transform="translate(0 70.333)" fill="#3f3d56"/>
  <path id="Path_6761" data-name="Path 6761" d="M699.467,694.928l.387,1.934-1.934.387.29-2.417Z" transform="translate(-630.44 -627.65)" fill="#a0616a"/>
  <path id="Path_6762" data-name="Path 6762" d="M750.724,687.314l-.483,2.417h-2.32l.967-2.9Z" transform="translate(-675.606 -620.423)" fill="#a0616a"/>
  <path id="Path_6763" data-name="Path 6763" d="M879.414,573.133l.387,2.611-.483,5.7-.387,2.127-1.644,6.961s-1.837,0-2.127-.773l.483-3.964a33.432,33.432,0,0,0,.29-3.577c-.1-.387-1.547-6.575-1.547-6.575s-2.127,9.765-2.417,10.636a44.5,44.5,0,0,0-.677,4.641s-1.644.29-1.74,0-.193-7.155-.193-8.218a10.962,10.962,0,0,1,.193-1.837c0-.193-.762-9.424-.762-9.424Z" transform="translate(-802.169 -523.066)" fill="#2f2e41"/>
  <path id="Path_6764" data-name="Path 6764" d="M918.7,773.883a1.921,1.921,0,0,0,.773,0c.29-.1,0-.677,0-.677h1.064s1.16,2.611,1.644,2.8,2.03,2.32.193,2.32a6,6,0,0,1-3.191-.967,1.281,1.281,0,0,0-1.064-.967c-.87-.1-1.45-1.16-1.45-1.16l1.257-2.321S918.216,773.98,918.7,773.883Z" transform="translate(-845.419 -705.058)" fill="#2f2e41"/>
  <path id="Path_6765" data-name="Path 6765" d="M860.624,774.69s-.193.387-.387.193a2.65,2.65,0,0,1-.387-.677s-.58-.29-.677,0a12.5,12.5,0,0,1-.677,2.03c-.193.193-2.224,2.224-.193,2.611s2.417-.483,2.417-.483a.441.441,0,0,1,.29-.677,1.131,1.131,0,0,0,.677-.87l-.387-2.9S860.914,774.883,860.624,774.69Z" transform="translate(-791.887 -705.961)" fill="#2f2e41"/>
  <path id="Path_6766" data-name="Path 6766" d="M976.736,518.916l.29,5.028s1.354,3.191-.484,3.094-.677-3.191-.677-3.191l-1.8-4.487Z" transform="translate(-897.267 -475.617)" fill="#a0616a"/>
  <path id="Path_6767" data-name="Path 6767" d="M840.471,503.916l-.29,5.028s-1.354,3.191.483,3.094.677-3.191.677-3.191l1.8-4.487Z" transform="translate(-775.892 -462.067)" fill="#a0616a"/>
  <circle id="Ellipse_175" data-name="Ellipse 175" cx="2.514" cy="2.514" r="2.514" transform="translate(69.8 25.896)" fill="#a0616a"/>
  <path id="Path_6768" data-name="Path 6768" d="M911.133,375.416s-.677,2.707.677,3.384-4.254,1.644-4.641,0l.193-.773a2.621,2.621,0,0,0,.58-1.837Z" transform="translate(-836.837 -345.991)" fill="#a0616a"/>
  <path id="Path_6769" data-name="Path 6769" d="M867.63,402.159s-1.668.156-2.188-.937c0,0-3.9.261-4.774,3.838l1.45,9.282s-1.547,2.707-1.354,3c0,0-.967,2.707,7.928,2.8l3.867-.193a5.379,5.379,0,0,0-.1-1.644c-.193-.87-1.257-6.961-1.257-6.961s2.9-4.544,2.611-5.221a6.05,6.05,0,0,0-4.486-4.428S869.274,402.256,867.63,402.159Z" transform="translate(-794.833 -369.302)" fill="#e6e6e6"/>
  <path id="Path_6770" data-name="Path 6770" d="M954.763,434.916l1.257,1.644s1.257,6.865.87,6.961-2.707.87-3.094.58-2.127-5.995-2.127-5.995Z" transform="translate(-877.034 -399.738)" fill="#e6e6e6"/>
  <path id="Path_6771" data-name="Path 6771" d="M844.936,429.916l-1.644,1.064s-2.417,6.768-1.74,7.058a23.7,23.7,0,0,0,4.448.1Z" transform="translate(-777.456 -395.222)" fill="#e6e6e6"/>
  <path id="Path_6772" data-name="Path 6772" d="M907.046,327.48s-.871-1.887-2.54-1.451-2.612,1.088-2.685,1.741a9.321,9.321,0,0,0,.036,1.633s.182-1.342,1.342-1.052a7.844,7.844,0,0,0,2.036.141.889.889,0,0,1,.925.9l-.03,2.078A2.87,2.87,0,0,0,907.046,327.48Z" transform="translate(-831.984 -301.32)" fill="#2f2e41"/>
  <path id="Path_6773" data-name="Path 6773" d="M508.514,190.907H474.366a.633.633,0,0,1-.632-.632v-15.68a.633.633,0,0,1,.632-.632h34.148a.633.633,0,0,1,.632.632v15.68A.633.633,0,0,1,508.514,190.907Zm-34.148-16.692a.38.38,0,0,0-.379.379v15.68a.38.38,0,0,0,.379.379h34.148a.38.38,0,0,0,.379-.379v-15.68a.38.38,0,0,0-.379-.379Z" transform="translate(-445.309 -164.016)" fill="#e6e6e6"/>
  <circle id="Ellipse_176" data-name="Ellipse 176" cx="2.576" cy="2.576" r="2.576" transform="translate(31.534 12.925)" fill="#2e58a6"/>
  <path id="Path_6774" data-name="Path 6774" d="M590.056,213.649a.429.429,0,0,0,0,.859H610.3a.429.429,0,1,0,0-.859Z" transform="translate(-549.997 -199.865)" fill="#e6e6e6"/>
  <path id="Path_6775" data-name="Path 6775" d="M590.056,240.292a.429.429,0,0,0,0,.859h8.709a.429.429,0,1,0,0-.859Z" transform="translate(-549.997 -223.932)" fill="#e6e6e6"/>
  <path id="Path_6776" data-name="Path 6776" d="M506.566,282.885c-.327,0-.592.193-.592.429s.266.429.592.429h27.925c.327,0,.592-.193.592-.429s-.266-.429-.592-.429Z" transform="translate(-474.432 -262.407)" fill="#e6e6e6"/>
  <path id="Path_6777" data-name="Path 6777" d="M506.566,309.527c-.327,0-.592.193-.592.429s.266.429.592.429h27.925c.327,0,.592-.193.592-.429s-.266-.429-.592-.429Z" transform="translate(-474.432 -286.473)" fill="#e6e6e6"/>
  <circle id="Ellipse_177" data-name="Ellipse 177" cx="4.581" cy="4.581" r="4.581" transform="translate(52.474 0)" fill="#2e58a6"/>
  <path id="Path_6778" data-name="Path 6778" d="M563.334,78.048,561.9,75.567l-1.432-2.481h5.73l-1.432,2.481Z" transform="translate(-506.279 -66.02)" fill="#2e58a6"/>
  <circle id="Ellipse_178" data-name="Ellipse 178" cx="1.644" cy="1.644" r="1.644" transform="translate(55.448 2.909)" fill="#fff"/>
  <ellipse id="Ellipse_179" data-name="Ellipse 179" cx="0.387" cy="0.483" rx="0.387" ry="0.483" transform="translate(73.953 27.926)" fill="#a0616a"/>
</svg>
