<svg id="undraw_online_payments_re_y8f2" xmlns="http://www.w3.org/2000/svg" width="125.983" height="81.69" viewBox="0 0 125.983 81.69">
  <path id="Path_6779" data-name="Path 6779" d="M175.782,514.435c.624-6.373,4.4-12.734,10.4-14.959a29.5,29.5,0,0,0,.529,20.249c1,2.494,2.365,5.164,1.555,7.724a6.6,6.6,0,0,1-3.275,3.63,19.583,19.583,0,0,1-4.738,1.593l-.314.274C177.2,527.161,175.158,520.808,175.782,514.435Z" transform="translate(-171.789 -451.739)" fill="#f0f0f0"/>
  <path id="Path_6780" data-name="Path 6780" d="M211.7,498.769a25.217,25.217,0,0,0-5.9,14.351,10.859,10.859,0,0,0,.212,3.4,6.228,6.228,0,0,0,1.624,2.847A12.893,12.893,0,0,1,209.7,521.7a3.814,3.814,0,0,1,.267,3.107,9.908,9.908,0,0,1-2.109,3.331,9.729,9.729,0,0,0-2.343,3.7c-.046.176-.316.094-.27-.081.661-2.525,3.057-4.012,4.158-6.3a3.862,3.862,0,0,0,.173-3.394,10,10,0,0,0-2.049-2.417,6.647,6.647,0,0,1-1.691-2.725,10.039,10.039,0,0,1-.342-3.375,24.465,24.465,0,0,1,1.592-7.479,25.663,25.663,0,0,1,4.42-7.513c.117-.138.309.069.192.207Z" transform="translate(-197.244 -450.913)" fill="#fff"/>
  <path id="Path_6781" data-name="Path 6781" d="M191.048,566.237a3.783,3.783,0,0,1-2.982-3.887.141.141,0,0,1,.282.007,3.5,3.5,0,0,0,2.781,3.61C191.307,566,191.224,566.274,191.048,566.237Z" transform="translate(-182.455 -505.74)" fill="#fff"/>
  <path id="Path_6782" data-name="Path 6782" d="M219.063,618.711a7.292,7.292,0,0,0,3.146-4.283c.047-.176.317-.094.27.082a7.585,7.585,0,0,1-3.283,4.45C219.043,619.056,218.91,618.807,219.063,618.711Z" transform="translate(-209.08 -550.593)" fill="#fff"/>
  <path id="Path_6783" data-name="Path 6783" d="M226.732,533.886a2.142,2.142,0,0,0,2.026-.156c.153-.1.285.151.133.249a2.4,2.4,0,0,1-2.241.177.146.146,0,0,1-.094-.176A.142.142,0,0,1,226.732,533.886Z" transform="translate(-215.583 -481.202)" fill="#fff"/>
  <path id="Path_6784" data-name="Path 6784" d="M230.543,573.956c-.094.064-.187.129-.281.2a28.2,28.2,0,0,0-3.531,2.908c-.086.081-.172.164-.256.247a29.731,29.731,0,0,0-6.225,9,28.87,28.87,0,0,0-1.474,4.132c-.533,1.951-.956,4.109-2.069,5.722a4.95,4.95,0,0,1-.373.486l-10.436.272-.072-.031-.416.03c.015-.074.032-.151.047-.225.008-.043.019-.086.028-.129s.013-.058.017-.084c0-.01,0-.019.006-.026,0-.026.011-.05.015-.074q.14-.643.29-1.287s0,0,0,0a42.456,42.456,0,0,1,3.327-9.47c.045-.089.091-.181.141-.271a27.549,27.549,0,0,1,2.376-3.817,24.333,24.333,0,0,1,1.573-1.9,20.256,20.256,0,0,1,4.968-3.928,16.083,16.083,0,0,1,12.037-1.841C230.339,573.9,230.44,573.925,230.543,573.956Z" transform="translate(-197.386 -515.354)" fill="#f0f0f0"/>
  <path id="Path_6785" data-name="Path 6785" d="M230.78,576.662a25.217,25.217,0,0,0-13.348,7.908,10.86,10.86,0,0,0-1.875,2.839,6.228,6.228,0,0,0-.418,3.251,12.89,12.89,0,0,1,.237,3.111,3.813,3.813,0,0,1-1.657,2.642,9.908,9.908,0,0,1-3.69,1.39,9.728,9.728,0,0,0-4.1,1.546c-.143.113-.309-.115-.167-.228,2.048-1.618,4.856-1.363,7.112-2.526a3.862,3.862,0,0,0,2.182-2.606,10,10,0,0,0-.181-3.163,6.646,6.646,0,0,1,.29-3.194,10.04,10.04,0,0,1,1.759-2.9,24.465,24.465,0,0,1,5.774-5.013,25.664,25.664,0,0,1,8.053-3.337c.177-.04.2.241.029.281Z" transform="translate(-197.643 -517.927)" fill="#fff"/>
  <path id="Path_6786" data-name="Path 6786" d="M291.748,594.945a3.783,3.783,0,0,1-.041-4.9c.117-.139.338.036.221.175a3.5,3.5,0,0,0,.047,4.557C292.1,594.915,291.867,595.081,291.748,594.945Z" transform="translate(-270.906 -529.648)" fill="#fff"/>
  <path id="Path_6787" data-name="Path 6787" d="M271.486,665.6a7.292,7.292,0,0,0,5.09-1.526c.143-.112.31.116.167.228a7.585,7.585,0,0,1-5.3,1.577C271.261,665.864,271.305,665.585,271.486,665.6Z" transform="translate(-254.121 -593.382)" fill="#fff"/>
  <path id="Path_6788" data-name="Path 6788" d="M344.287,591.438a2.142,2.142,0,0,0,1.712,1.1c.181.013.137.292-.043.279a2.4,2.4,0,0,1-1.9-1.208.146.146,0,0,1,.031-.2A.142.142,0,0,1,344.287,591.438Z" transform="translate(-316.7 -530.84)" fill="#fff"/>
  <path id="Path_6789" data-name="Path 6789" d="M817.5,163c-.156-.46-2.11-2.024-.912-2.287l.982,1.309,4.514-4.514.454.454Z" transform="translate(-723.089 -157.411)" fill="#2e58a6"/>
  <path id="Path_6790" data-name="Path 6790" d="M817.5,273.2c-.156-.46-2.11-2.024-.912-2.287l.982,1.309,4.514-4.514.454.454Z" transform="translate(-723.089 -252.255)" fill="#2e58a6"/>
  <path id="Path_6791" data-name="Path 6791" d="M817.5,384.965c-.156-.46-2.11-2.024-.912-2.287l.982,1.309,4.514-4.514.454.454Z" transform="translate(-723.089 -348.453)" fill="#2e58a6"/>
  <circle id="Ellipse_180" data-name="Ellipse 180" cx="1.393" cy="1.393" r="1.393" transform="translate(88.858 21.138)" fill="#3f3d56"/>
  <circle id="Ellipse_181" data-name="Ellipse 181" cx="1.393" cy="1.393" r="1.393" transform="translate(88.858 5.954)" fill="#3f3d56"/>
  <rect id="Rectangle_1750" data-name="Rectangle 1750" width="22.428" height="0.279" transform="translate(103.555 4.143)" fill="#3f3d56"/>
  <circle id="Ellipse_182" data-name="Ellipse 182" cx="1.393" cy="1.393" r="1.393" transform="translate(89.555 37.325)" fill="#3f3d56"/>
  <rect id="Rectangle_1751" data-name="Rectangle 1751" width="22.428" height="0.279" transform="translate(103.555 19.493)" fill="#3f3d56"/>
  <rect id="Rectangle_1752" data-name="Rectangle 1752" width="22.428" height="0.279" transform="translate(103.555 35.063)" fill="#3f3d56"/>
  <path id="Path_6792" data-name="Path 6792" d="M659.925,233.1H652.96V226H657.7v.279h-4.458v6.547h6.408v-3.2h.279Z" transform="translate(-561.999 -194.517)" fill="#3f3d56"/>
  <path id="Path_6793" data-name="Path 6793" d="M659.925,121.1H652.96V114H657.7v.279h-4.458v6.547h6.408v-3.2h.279Z" transform="translate(-561.999 -98.119)" fill="#3f3d56"/>
  <path id="Path_6794" data-name="Path 6794" d="M659.925,7.1H652.96V0H657.7V.279h-4.458V6.826h6.408v-3.2h.279Z" transform="translate(-561.999)" fill="#3f3d56"/>
  <path id="Path_6795" data-name="Path 6795" d="M519.893,318.122s-1.862,7.86.414,7.86,7.653-8.894,7.653-8.894l-1.862-2.275-3.341,4.639-.175-2.364Z" transform="translate(-467.444 -292.8)" fill="#a0616a"/>
  <circle id="Ellipse_183" data-name="Ellipse 183" cx="1.811" cy="1.811" r="1.811" transform="translate(58.209 21.007)" fill="#a0616a"/>
  <path id="Path_6796" data-name="Path 6796" d="M365.172,508.6h2.41l1.147-9.3h-3.558Z" transform="translate(-314.3 -429.745)" fill="#a0616a"/>
  <path id="Path_6797" data-name="Path 6797" d="M512.384,716.143H519.8v-.094a2.885,2.885,0,0,0-2.885-2.885h0l-1.354-1.027-2.526,1.027h-.647Z" transform="translate(-461.597 -634.774)" fill="#2f2e41"/>
  <path id="Path_6798" data-name="Path 6798" d="M179.038,493.056l2.157,1.076,5.178-7.807-3.183-1.589Z" transform="translate(-154.097 -417.209)" fill="#a0616a"/>
  <path id="Path_6799" data-name="Path 6799" d="M318.25,700.667l6.633,3.31.042-.084a2.886,2.886,0,0,0-1.293-3.87h0l-.753-1.524-2.719-.209L319.58,698Z" transform="translate(-294.508 -622.608)" fill="#2f2e41"/>
  <rect id="Rectangle_1753" data-name="Rectangle 1753" width="79.384" height="0.312" transform="translate(0 81.378)" fill="#ccc"/>
  <path id="Path_6800" data-name="Path 6800" d="M343.065,433.259s-.963,11.583-1.17,14.065a17.654,17.654,0,0,1-1.034,4.55,4.279,4.279,0,0,0-.414,1.655l-4.688,8.52s-1.433,1.053-1.226,1.88-.864,1.324-.864,1.324l4.937.952a.641.641,0,0,1,.414-.827c.621-.207,1.114-2,1.114-2l6.931-11.3,4.964-10.342s2.9,9.308,3.516,10.342c0,0,2.275,11.583,2.689,12.617s.621,1.034.414,1.448a.923.923,0,0,0,0,1.034,27.581,27.581,0,0,0,4.137,0l-1.034-14.685-1.862-17.581-9.515-2.9Z" transform="translate(-307.779 -393.678)" fill="#2f2e41"/>
  <circle id="Ellipse_184" data-name="Ellipse 184" cx="4.344" cy="4.344" r="4.344" transform="translate(40.258 3.242)" fill="#a0616a"/>
  <path id="Path_6801" data-name="Path 6801" d="M417.051,254.671l-5.171-3.133s-.143-1.945-1.617-2.037c-.74-.046-1.85-.116-3.515-.224-.352-.023-.59,1.9-.993,1.877L400.3,252.6l.827,14.065s-1.241,5.585-.827,6.619-1.034,1.448-.62,1.655,0,1.655,0,1.655,8.067,4.137,16.961,1.034l-.827-2.689a2.17,2.17,0,0,0-.414-2.068,1.83,1.83,0,0,0-.207-2.275s.414-1.862-.62-2.689l-.207-2.9.62-1.448Z" transform="translate(-364.527 -236.395)" fill="#e6e6e6"/>
  <path id="Path_6802" data-name="Path 6802" d="M435.529,179.868l-.121-.282c-.016-.036-1.552-3.668-.19-5.908a4.039,4.039,0,0,1,3.406-1.74c2.55-.184,4.3.421,5.189,1.8a1.543,1.543,0,0,1-1.3,2.377h-.034l-.469-.608-.027.059a.968.968,0,0,1-1.016.524c-.078-.006-.146.061-.2.2a.364.364,0,0,1-.273.253c-.337.066-.818-.359-1.033-.571a.345.345,0,0,1-.161.237c-.227.131-.58-.04-.681-.094-.807.171-1.329.126-1.553-.136-.152,1.073-.477,3-.868,3.112a.2.2,0,0,1-.213-.093c-.094-.122-.178-.183-.23-.166-.127.04-.2.459-.213.729Z" transform="translate(-394.697 -169.801)" fill="#2f2e41"/>
  <path id="Path_6803" data-name="Path 6803" d="M497.028,287.409l2.063-.335a10.073,10.073,0,0,1,2.9,5.3c.621,3.309.827,3.93.827,3.93l-4.964,1.241-2.689-5.171Z" transform="translate(-446.779 -268.925)" fill="#e6e6e6"/>
  <rect id="Rectangle_1754" data-name="Rectangle 1754" width="16.215" height="32.641" transform="translate(39.818 38.953) rotate(-85.49)" fill="#fff"/>
  <path id="Path_6804" data-name="Path 6804" d="M454.209,325.648a3.815,3.815,0,0,0-2.194-.6,3.294,3.294,0,0,0,3.474,2.482A3.818,3.818,0,0,0,454.209,325.648Z" transform="translate(-409.639 -301.607)" fill="#2e58a6"/>
  <path id="Path_6805" data-name="Path 6805" d="M450.172,400.635l-5.225-.412a1.179,1.179,0,0,0-.185,2.351h0l5.225.412a1.179,1.179,0,1,0,.185-2.351Z" transform="translate(-402.46 -366.309)" fill="#2e58a6"/>
  <path id="Path_6806" data-name="Path 6806" d="M461.884,313.2l-29.295-2.311a2.6,2.6,0,0,0-2.8,2.39l-1.127,14.272a2.6,2.6,0,0,0,2.391,2.8l29.295,2.311a2.6,2.6,0,0,0,2.8-2.39l1.071-13.565.022-.277.034-.431A2.6,2.6,0,0,0,461.884,313.2Zm-.865,12.417-.186,2.351a1.576,1.576,0,0,1-1.691,1.443l-3.919-.309a1.576,1.576,0,0,1-1.443-1.691l.186-2.351a1.577,1.577,0,0,1,1.691-1.443l3.918.309a1.578,1.578,0,0,1,1.445,1.691Zm-30.527-1.226a1.441,1.441,0,0,1,1.548-1.322l5.225.412a1.441,1.441,0,0,1-.224,2.873h0l-5.225-.412a1.44,1.44,0,0,1-1.321-1.551Zm1.119-11.629-.036-.146.15-.014a3.593,3.593,0,0,1,3.959,2.827l.034.146-.15.015a3.96,3.96,0,0,1-.639,0,3.78,3.78,0,0,1-1.892-.639,4.1,4.1,0,0,1-1.427-2.186Z" transform="translate(-389.533 -289.414)" fill="#2e58a6"/>
  <path id="Path_6807" data-name="Path 6807" d="M615.874,427.022l-1.7-.134a.459.459,0,0,0-.072.914l1.7.134a.459.459,0,1,0,.072-.914Z" transform="translate(-548.784 -389.262)" fill="#2e58a6"/>
  <path id="Path_6808" data-name="Path 6808" d="M638.379,428.8l-1.7-.134a.459.459,0,0,0-.072.914l1.7.134a.459.459,0,1,0,.072-.914Z" transform="translate(-568.154 -390.79)" fill="#2e58a6"/>
  <path id="Path_6809" data-name="Path 6809" d="M616.54,418.583l-1.7-.134a.459.459,0,0,0-.072.914l1.7.134a.459.459,0,0,0,.072-.914Z" transform="translate(-549.357 -381.999)" fill="#2e58a6"/>
  <path id="Path_6810" data-name="Path 6810" d="M639.044,420.358l-1.7-.134a.459.459,0,0,0-.072.914l1.7.134a.459.459,0,0,0,.072-.914Z" transform="translate(-568.726 -383.526)" fill="#2e58a6"/>
  <path id="Path_6811" data-name="Path 6811" d="M617.206,410.144l-1.7-.134a.459.459,0,0,0-.072.914l1.7.134a.459.459,0,0,0,.072-.914Z" transform="translate(-549.93 -374.735)" fill="#2e58a6"/>
  <path id="Path_6812" data-name="Path 6812" d="M639.71,411.919l-1.7-.134a.459.459,0,0,0-.072.914l1.7.134a.459.459,0,1,0,.072-.914Z" transform="translate(-569.299 -376.263)" fill="#2e58a6"/>
  <rect id="Rectangle_1755" data-name="Rectangle 1755" width="0.279" height="34.494" transform="translate(39.799 28.644) rotate(-85.509)" fill="#fff"/>
  <path id="Path_6813" data-name="Path 6813" d="M449.968,187.147l-.022.277-1.2-.094-12.751-1,.023-.277,12.75,1Z" transform="translate(-375.262 -160.133)" fill="#3f3d56"/>
  <path id="Path_6814" data-name="Path 6814" d="M377.893,309.122s-1.862,7.86.414,7.86,7.653-8.894,7.653-8.894l-1.862-2.275-3.341,4.639-.175-2.364Z" transform="translate(-345.225 -285.054)" fill="#a0616a"/>
  <circle id="Ellipse_185" data-name="Ellipse 185" cx="1.811" cy="1.811" r="1.811" transform="translate(38.428 19.754)" fill="#a0616a"/>
  <path id="Path_6815" data-name="Path 6815" d="M383.464,274.388l-1.241-1.241s-2.482,1.448-2.689,2.9-1.241,6-1.241,6l3.826.31,1.241-1.862Z" transform="translate(-346.186 -256.939)" fill="#e6e6e6"/>
</svg>
