<svg xmlns="http://www.w3.org/2000/svg" width="110.735" height="84.25" viewBox="0 0 110.735 84.25">
  <g id="undraw_Order_confirmed_re_g0if" transform="translate(0)">
    <path id="Path_6405" data-name="Path 6405" d="M284.944,156.972h-.4V145.905a6.405,6.405,0,0,0-6.4-6.405H254.689a6.405,6.405,0,0,0-6.405,6.4v60.712a6.4,6.4,0,0,0,6.405,6.405h23.446a6.405,6.405,0,0,0,6.405-6.405V164.849h.4Z" transform="translate(-240.634 -139.5)" fill="#b9c7e2"/>
    <path id="Path_6406" data-name="Path 6406" d="M289.653,151.783h-3.06a2.272,2.272,0,0,1-2.1,3.131H271.057a2.272,2.272,0,0,1-2.1-3.131h-2.858a4.783,4.783,0,0,0-4.783,4.783v60.623a4.783,4.783,0,0,0,4.783,4.783h23.559a4.783,4.783,0,0,0,4.783-4.783h0V156.566a4.783,4.783,0,0,0-4.783-4.783Z" transform="translate(-251.893 -150.116)" fill="#fff"/>
    <path id="Path_6407" data-name="Path 6407" d="M243.717,679.771h-51.69a.136.136,0,0,1,0-.271h51.69a.136.136,0,0,1,0,.271Z" transform="translate(-191.892 -606.239)" fill="#cbcbcb"/>
    <circle id="Ellipse_44" data-name="Ellipse 44" cx="11.457" cy="11.457" r="11.457" transform="translate(14.524 23.985)" fill="#50c900"/>
    <path id="Path_395" data-name="Path 395" d="M350.249,377.435a1.189,1.189,0,0,1-.715-.238l-.013-.01-2.692-2.06a1.2,1.2,0,0,1,1.456-1.9l1.744,1.337,4.121-5.376a1.2,1.2,0,0,1,1.677-.221h0L355.8,369l.026-.036a1.2,1.2,0,0,1,.221,1.677l-4.847,6.321a1.2,1.2,0,0,1-.952.467Z" transform="translate(-325.404 -337.623)" fill="#fff"/>
    <path id="Path_6408" data-name="Path 6408" d="M882.4,599.092a3.566,3.566,0,0,1,.489-.623c.077-.079.157-.154.241-.227a3.818,3.818,0,0,1,6.3,2.172c.559-2.069-.9-4.108-2.361-5.673s-3.14-3.282-3.131-5.427a4.131,4.131,0,0,1,1.469-3.047l.082-.071a5.571,5.571,0,0,1,3.838-1.338c2.6.14,4.879,1.89,6.458,3.967,2.542,3.341,3.656,8.031,1.876,11.835-1.565,3.345-4.9,5.331-8.312,6.928q-.714.335-1.425.649l-.01,0-.067.03-.293.129.045.029.14.091-.145-.087-.044-.026a14.858,14.858,0,0,1-4.527-3.634A5.243,5.243,0,0,1,882.4,599.092Z" transform="translate(-788.212 -524.433)" fill="#f1f1f1"/>
    <path id="Path_6409" data-name="Path 6409" d="M900.42,603.833a9.469,9.469,0,0,1,.729,2.65,8.222,8.222,0,0,1-.1,2.444,10.539,10.539,0,0,1-2.113,4.521,15.158,15.158,0,0,1-2.738,2.662q-.714.334-1.425.649l-.009,0-.067.03-.293.129.045.029.14.091-.145-.087-.044-.026a8.31,8.31,0,0,0-4.657-9.938c.077-.08.157-.154.241-.227a8.762,8.762,0,0,1,1.344.767,8.589,8.589,0,0,1,3.25,4.306,8.785,8.785,0,0,1,.191,4.91c.084-.055.168-.111.25-.167a15.4,15.4,0,0,0,4.078-3.863,9.8,9.8,0,0,0,1.74-4.421,8.86,8.86,0,0,0-1.006-5.007,20.524,20.524,0,0,0-3.215-4.568,23.327,23.327,0,0,0-4.311-3.707.168.168,0,0,1-.05-.226.141.141,0,0,1,.082-.071.124.124,0,0,1,.106.021c.2.131.389.262.58.4a23.581,23.581,0,0,1,4.31,3.937A18.991,18.991,0,0,1,900.42,603.833Z" transform="translate(-795.067 -532.955)" fill="#fff"/>
    <circle id="Ellipse_44-2" data-name="Ellipse 44" cx="2.433" cy="2.433" r="2.433" transform="translate(68.798 0.453)" fill="#f1f1f1"/>
    <circle id="Ellipse_44-3" data-name="Ellipse 44" cx="1.483" cy="1.483" r="1.483" transform="translate(100.002 34.913)" fill="#f1f1f1"/>
    <circle id="Ellipse_44-4" data-name="Ellipse 44" cx="1.483" cy="1.483" r="1.483" transform="translate(56.588 38.983)" fill="#f1f1f1"/>
    <path id="Path_6410" data-name="Path 6410" d="M625.244,758.771h51.69a.136.136,0,0,0,0-.271h-51.69a.136.136,0,0,0,0,.271Z" transform="translate(-566.335 -674.521)" fill="#cbcbcb"/>
    <path id="Path_6411" data-name="Path 6411" d="M914.02,221.7a1.988,1.988,0,0,0-3.817-1.008l-4.194,4.809,1.231,3.437,4.218-5.619a1.977,1.977,0,0,0,2.563-1.62Z" transform="translate(-809.126 -208.592)" fill="#ffb7b7"/>
    <path id="Path_6412" data-name="Path 6412" d="M610.494,120.857,624.418,106l-1.878-2.986-17.464,14.769Z" transform="translate(-522.986 -89.037)" fill="#b9c7e2"/>
    <circle id="Ellipse_143" data-name="Ellipse 143" cx="4.884" cy="4.884" r="4.884" transform="translate(79.516 13.024)" fill="#2f2e41"/>
    <path id="Path_6413" data-name="Path 6413" d="M816.894,233.121a10.24,10.24,0,0,1,3.726-2.409,5.242,5.242,0,0,1,2.823-.35,2.69,2.69,0,0,1,2.095,1.765,3.331,3.331,0,0,1-.34,2.28c-.333.711-.778,1.371-1.048,2.108a4.812,4.812,0,0,0,4.842,6.453,23.949,23.949,0,0,0-2.682.79,2.811,2.811,0,0,1-2.644-.432,3.6,3.6,0,0,1-.691-2.787q.077-2.2.153-4.4a5.6,5.6,0,0,0-.221-2.219,1.906,1.906,0,0,0-1.66-1.3,2.724,2.724,0,0,0-1.525.688,3.114,3.114,0,0,1-1.5.751c-.565.05-1.211-.368-1.168-.934Z" transform="translate(-732.101 -217.972)" fill="#2f2e41"/>
    <path id="Path_6414" data-name="Path 6414" d="M661.213,459.454a1.988,1.988,0,0,1-1.5-3.653l4.219-4.787,3.569.771-5.019,4.916a1.977,1.977,0,0,1-1.271,2.752Z" transform="translate(-595.363 -408.752)" fill="#ffb7b7"/>
    <path id="Path_6415" data-name="Path 6415" d="M500.277,199.527l-10.516,13.2-3.206-1.472,12.361-19.244Z" transform="translate(-420.545 -165.962)" fill="#b9c7e2"/>
    <path id="Path_6416" data-name="Path 6416" d="M509.88,540.961l-2.506-.039.3,8.542h2.2Z" transform="translate(-438.54 -467.535)" fill="#ffb7b7"/>
    <path id="Path_6417" data-name="Path 6417" d="M676.594,738.081h-4.342a2.767,2.767,0,0,0-2.767,2.767v.09h7.108Z" transform="translate(-604.692 -656.872)" fill="#2f2e41"/>
    <path id="Path_6418" data-name="Path 6418" d="M630.722,524.511l-2.738,1.758,5.477,6.589,1.855-1.191Z" transform="translate(-542.787 -453.352)" fill="#ffb7b7"/>
    <path id="Path_6419" data-name="Path 6419" d="M843.158,710.049l-3.653,2.346h0a2.767,2.767,0,0,0-.833,3.823l.048.076,5.982-3.84Z" transform="translate(-750.545 -632.643)" fill="#2f2e41"/>
    <path id="Path_6420" data-name="Path 6420" d="M710.664,341.215s-6.083-20.2-8.038-20.478-5.1,5.184-5.1,5.184c-4.084,5.211-8.3,22.09-8.3,22.09s7.02.439,12.152,3.17,11.188-.138,11.188-.138Z" transform="translate(-621.753 -296.14)" fill="#b9c7e2"/>
    <path id="Path_6421" data-name="Path 6421" d="M710.664,341.215s-6.083-20.2-8.038-20.478-4.3,5.24-4.3,5.24c-2.035,8.411-9.1,22.034-9.1,22.034s7.02.439,12.152,3.17,11.188-.138,11.188-.138Z" transform="translate(-621.753 -296.141)" opacity="0.1"/>
    <path id="Path_6422" data-name="Path 6422" d="M517.273,278.708v10.153l1.195,14.707,5.969,11.125-2.849,2.035-8.14-10.582-3.22-10.507-5.056,23.26-3.8-.271,2.638-32.25,5.006-9.078Z" transform="translate(-433.354 -239.679)" fill="#2f2e41"/>
    <path id="Path_6423" data-name="Path 6423" d="M750.557,325.413a2.864,2.864,0,0,0-.136,3.934l-2.171,4.884,8.547,2.306,2.987-13.347-2.035-2.171a29.011,29.011,0,0,1-4.072-.22A50.929,50.929,0,0,0,750.557,325.413Z" transform="translate(-672.77 -296.203)" fill="#2e58a6"/>
    <path id="Path_6424" data-name="Path 6424" d="M785.747,323.688a3.647,3.647,0,0,0-5.125.8,13.27,13.27,0,0,0-1.4,13.848c4.4,9.674,8.22,14.627,9.776,14.627a.617.617,0,0,0,.2-.031,5.1,5.1,0,0,0,2.592-3.372,1.711,1.711,0,0,0-.543-1.711c-1.755-1.4-4.905-5.774-5.888-11.527a12.752,12.752,0,0,1,1.489-7.943,3.647,3.647,0,0,0-1.055-4.657h0Z" transform="translate(-698.388 -298.084)" fill="#b9c7e2"/>
    <circle id="Ellipse_144" data-name="Ellipse 144" cx="3.595" cy="3.595" r="3.595" transform="translate(78.047 17.728) rotate(-28.663)" fill="#ffb7b7"/>
    <path id="Path_6425" data-name="Path 6425" d="M765.872,253.528h5.191l.053-.745.266.745h.8l.105-1.477.528,1.477h1.547v-.073a3.884,3.884,0,0,0-3.879-3.879h-.732a3.883,3.883,0,0,0-3.879,3.879Z" transform="translate(-688.001 -234.642)" fill="#2f2e41"/>
    <path id="Path_6426" data-name="Path 6426" d="M810.125,259.6l2.216-.719V253.5h-4.185l.1.1C809.7,255.043,811.3,260.15,810.125,259.6Z" transform="translate(-724.549 -238.034)" fill="#2f2e41"/>
  </g>
</svg>
