<svg xmlns="http://www.w3.org/2000/svg" width="179.688" height="146.384" viewBox="0 0 179.688 146.384">
  <g id="undraw_envelope_re_f5j4" transform="translate(0 0)">
    <path id="Path_461" data-name="Path 461" d="M454.389,676.519a5.508,5.508,0,0,0,5.236,1.322c2.34-.664,3.927-2.775,5.337-4.757l4.17-5.862-3.514.644a21.437,21.437,0,0,0-7.318,2.276c-2.2,1.326-3.964,3.693-3.824,6.259" transform="translate(-401.721 -538.572)" fill="#e6e6e6"/>
    <path id="Path_462" data-name="Path 462" d="M441.59,701.8a28.482,28.482,0,0,1,2.324-6.147,10.317,10.317,0,0,1,4.029-4.121,8.994,8.994,0,0,1,2.963-.964c.27-.038.314.382.045.42a8.555,8.555,0,0,0-4.758,2.34,13.7,13.7,0,0,0-3.081,5.092c-.423,1.13-.763,2.287-1.1,3.444a.218.218,0,0,1-.241.177.213.213,0,0,1-.177-.241Z" transform="translate(-392.188 -555.953)" fill="#f2f2f2"/>
    <path id="Path_6733" data-name="Path 6733" d="M701.024,402.824A2.818,2.818,0,0,1,704.5,405.4l9.641,2.71-3.934,3.407-8.552-3.1a2.833,2.833,0,0,1-.628-5.592Z" transform="translate(-583.759 -341.618)" fill="#ffb7b7"/>
    <path id="Path_6734" data-name="Path 6734" d="M544.259,529.675h-2.81l-1.337-10.84h4.148Z" transform="translate(-402.219 -386.374)" fill="#ffb7b7"/>
    <path id="Path_6735" data-name="Path 6735" d="M780.823,724.656h-9.062v-.115a3.527,3.527,0,0,1,3.527-3.527h5.535Z" transform="translate(-638.067 -578.631)" fill="#2f2e41"/>
    <path id="Path_6736" data-name="Path 6736" d="M608.761,529.675h-2.81l-1.337-10.84h4.148Z" transform="translate(-450.254 -386.374)" fill="#ffb7b7"/>
    <path id="Path_6737" data-name="Path 6737" d="M845.325,724.656h-9.062v-.115a3.527,3.527,0,0,1,3.527-3.527h5.535Z" transform="translate(-686.101 -578.631)" fill="#2f2e41"/>
    <path id="Path_6738" data-name="Path 6738" d="M535.288,313.322,531.148,342l1.031,30.211,6.216.5,1.944-27.094,4.948-15.107,2.909,21.535.12,20.171,6.419.5,2.239-42.406-1.647-18.442Z" transform="translate(-395.544 -232.236)" fill="#2f2e41"/>
    <circle id="Ellipse_174" data-name="Ellipse 174" cx="6.549" cy="6.549" r="6.549" transform="translate(145.168 29.597)" fill="#ffb7b7"/>
    <path id="Path_6739" data-name="Path 6739" d="M805.453,340.844l-7.23,36.423s12.172,3.494,17.5.268,2.943-13.182,2.943-13.182l-.977-16.941-1.8-4.284-1.531-3.536Z" transform="translate(-657.772 -294.588)" fill="#cbcbcb"/>
    <path id="Path_6740" data-name="Path 6740" d="M783.7,368.288l2.5-26.561-2,1.458-6.984,2.268-.478,18.7-4.885,24.591s3.492,6.814,7.819-4.459Z" transform="translate(-638.133 -296.177)" fill="#2f2e41"/>
    <path id="Path_6741" data-name="Path 6741" d="M500.346,195.8l-3.361-2.8-7.554,16.409L481,207.57l-.4,4.978,12.213,4.833,8.322-11.586Z" transform="translate(-357.904 -143.731)" fill="#2f2e41"/>
    <path id="Path_6742" data-name="Path 6742" d="M609.144,196.622l.941-21.617,3.464,2.682,6.186,1.724-.907,17.21,1.305,26.7-6.486,2.054-1.821-16.851Z" transform="translate(-453.627 -130.325)" fill="#2f2e41"/>
    <path id="Path_6743" data-name="Path 6743" d="M858.726,462.312a2.818,2.818,0,0,1,3.75-2.148l6.356-7.74,1.539,4.972-6.272,6.587a2.833,2.833,0,0,1-5.373-1.672Z" transform="translate(-702.793 -378.614)" fill="#ffb7b7"/>
    <path id="Path_6744" data-name="Path 6744" d="M630.345,194.666l4.142-2.4,10.422,20.581-10.161,14.109-5.8-4.634,7.037-9.177-6.414-9.857Z" transform="translate(-468.378 -143.179)" fill="#2f2e41"/>
    <path id="Path_6745" data-name="Path 6745" d="M827.858,273.776l.317-.639-1.6-.794a4.682,4.682,0,0,0-4.951-2.062c-3.189.806-4.624,1.288-4.624,1.288l-1.593.8.8.8-1.435.482.958.476-1.115.641.6,3.286s1-2.492,2.914-1.54,5.423-.492,5.423-.492l3.047,5.9s.628-2.067,1.749-1.516C828.351,280.4,831.214,275.842,827.858,273.776Z" transform="translate(-669.981 -242.866)" fill="#2f2e41"/>
    <path id="Path_6746" data-name="Path 6746" d="M367.1,322.019h-.042l-24.017,10.255-32.86,14.031a1.06,1.06,0,0,1-.812,0l-33.9-14.065-24.607-10.209-.038-.017h-.042a1.466,1.466,0,0,0-1.464,1.464v63.6a1.466,1.466,0,0,0,1.464,1.464H367.1a1.466,1.466,0,0,0,1.464-1.464v-63.6A1.466,1.466,0,0,0,367.1,322.019Z" transform="translate(-249.007 -281.501)" fill="#fff"/>
    <path id="Path_6747" data-name="Path 6747" d="M369.954,204.251a.208.208,0,0,1-.119-.037L311.976,163.92a1.049,1.049,0,0,0-1.2,0l-57.441,40.291a.209.209,0,1,1-.24-.343l57.441-40.291a1.469,1.469,0,0,1,1.678,0l57.858,40.294a.209.209,0,0,1-.12.381Z" transform="translate(-251.753 -163.315)" fill="#3f3d56"/>
    <path id="Path_6748" data-name="Path 6748" d="M19.063,47.441,73.877,6.817l55.23,43.515L76.7,81.4,48.25,74.913Z" transform="translate(-14.196 -5.076)" fill="#e6e6e6"/>
    <path id="Path_6749" data-name="Path 6749" d="M308.2,530.041h-27.08a1.265,1.265,0,0,1,0-2.53H308.2a1.265,1.265,0,0,1,0,2.53Z" transform="translate(-271.744 -434.53)" fill="#2e58a6"/>
    <path id="Path_6750" data-name="Path 6750" d="M290.835,508.735h-9.715a1.265,1.265,0,0,1,0-2.53h9.719a1.265,1.265,0,1,1,0,2.53h0Z" transform="translate(-271.744 -418.664)" fill="#2e58a6"/>
    <path id="Path_6751" data-name="Path 6751" d="M384.518,244.279a1.583,1.583,0,0,1-.6-.118l-33.806-14.027V186.227a1.466,1.466,0,0,1,1.464-1.464H416.43a1.466,1.466,0,0,1,1.464,1.464v43.938l-.064.027-32.695,13.962a1.594,1.594,0,0,1-.618.124Z" transform="translate(-324.066 -179.287)" fill="#2e58a6"/>
    <path id="Path_6752" data-name="Path 6752" d="M365.874,322.019h-.042l-24.017,10.255-32.86,14.031a1.06,1.06,0,0,1-.812,0l-33.9-14.065-24.607-10.209-.038-.017h-.042a1.466,1.466,0,0,0-1.464,1.464v63.6a1.466,1.466,0,0,0,1.464,1.464H365.874a1.466,1.466,0,0,0,1.464-1.464v-63.6A1.466,1.466,0,0,0,365.874,322.019Zm1.046,65.063a1.046,1.046,0,0,1-1.046,1.046H249.556a1.046,1.046,0,0,1-1.046-1.046v-63.6a1.048,1.048,0,0,1,1.006-1.046L274.242,332.7l33.741,14a1.49,1.49,0,0,0,1.138-.006l32.694-13.962,24.1-10.291a1.049,1.049,0,0,1,1,1.046Z" transform="translate(-248.091 -281.501)" fill="#3f3d56"/>
    <path id="Path_6753" data-name="Path 6753" d="M392.254,239.285H369.241a1.674,1.674,0,1,1,0-3.347h23.013a1.674,1.674,0,1,1,0,3.347Z" transform="translate(-337.065 -217.397)" fill="#fff"/>
    <path id="Path_6754" data-name="Path 6754" d="M380.329,211.424H369.241a1.674,1.674,0,1,1,0-3.347h11.088a1.674,1.674,0,0,1,0,3.347Z" transform="translate(-337.065 -196.649)" fill="#fff"/>
    <path id="Path_6755" data-name="Path 6755" d="M442.876,304.84H407.729a1.674,1.674,0,0,1,0-3.347h35.147a1.674,1.674,0,0,1,0,3.347Z" transform="translate(-365.727 -266.215)" fill="#fff"/>
    <path id="Path_6756" data-name="Path 6756" d="M442.876,335.16H407.729a1.674,1.674,0,1,1,0-3.347h35.147a1.674,1.674,0,0,1,0,3.347Z" transform="translate(-365.727 -288.794)" fill="#fff"/>
    <path id="Path_6757" data-name="Path 6757" d="M754.309,734.826H687.164a.255.255,0,1,1,0-.511h67.145a.255.255,0,1,1,0,.511Z" transform="translate(-574.877 -588.536)" fill="#cbcbcb"/>
    <path id="Path_6758" data-name="Path 6758" d="M418.929,734.826H394.164a.255.255,0,1,1,0-.511h24.765a.255.255,0,1,1,0,.511Z" transform="translate(-356.681 -588.536)" fill="#cbcbcb"/>
    <path id="Path_461-2" data-name="Path 461" d="M424.76,655.845a5.508,5.508,0,0,0,4.645-2.755c1.191-2.121.828-4.737.429-7.136l-1.177-7.1-2.037,2.935a21.435,21.435,0,0,0-3.584,6.774c-.625,2.492-.206,5.414,1.7,7.135" transform="translate(-378.171 -517.449)" fill="#e6e6e6"/>
    <path id="Path_462-2" data-name="Path 462" d="M434.2,693.72a28.478,28.478,0,0,1-2.687-6,10.317,10.317,0,0,1-.049-5.763,9,9,0,0,1,1.421-2.773c.165-.218.493.05.329.266a8.554,8.554,0,0,0-1.724,5.015,13.7,13.7,0,0,0,1.406,5.783c.5,1.1,1.071,2.16,1.647,3.22a.218.218,0,0,1-.046.3.213.213,0,0,1-.3-.047Z" transform="translate(-384.359 -547.422)" fill="#f2f2f2"/>
  </g>
</svg>
